<mxfile host="Electron" modified="2023-05-04T12:10:22.363Z" agent="Mozilla/5.0 (Macintosh; Intel Mac OS X 10_15_7) AppleWebKit/537.36 (KHTML, like Gecko) draw.io/21.2.1 Chrome/112.0.5615.87 Electron/24.1.2 Safari/537.36" etag="iE-Lby19Y7MIp31lKJWh" version="21.2.1" type="device">
  <diagram name="Page-1" id="dd472eb7-4b8b-5cd9-a60b-b15522922e76">
    <mxGraphModel dx="1789" dy="1180" grid="1" gridSize="10" guides="1" tooltips="1" connect="1" arrows="1" fold="1" page="1" pageScale="1" pageWidth="1100" pageHeight="850" background="none" math="0" shadow="0">
      <root>
        <mxCell id="0" />
        <mxCell id="1" parent="0" />
        <mxCell id="Kns-bw97P9-mJ-PoGu3Q-6" value="" style="endArrow=none;html=1;rounded=0;strokeWidth=4;entryX=0;entryY=0.5;entryDx=0;entryDy=0;exitX=0.5;exitY=0;exitDx=0;exitDy=0;" parent="1" source="Kns-bw97P9-mJ-PoGu3Q-14" target="Kns-bw97P9-mJ-PoGu3Q-11" edge="1">
          <mxGeometry width="50" height="50" relative="1" as="geometry">
            <mxPoint x="-189" y="486" as="sourcePoint" />
            <mxPoint x="-69" y="416" as="targetPoint" />
          </mxGeometry>
        </mxCell>
        <mxCell id="Kns-bw97P9-mJ-PoGu3Q-7" value="" style="endArrow=none;html=1;rounded=0;strokeWidth=4;exitX=1;exitY=0.5;exitDx=0;exitDy=0;entryX=0.5;entryY=0;entryDx=0;entryDy=0;" parent="1" source="Kns-bw97P9-mJ-PoGu3Q-11" target="Kns-bw97P9-mJ-PoGu3Q-12" edge="1">
          <mxGeometry width="50" height="50" relative="1" as="geometry">
            <mxPoint x="-11" y="411" as="sourcePoint" />
            <mxPoint x="116" y="489" as="targetPoint" />
          </mxGeometry>
        </mxCell>
        <mxCell id="Kns-bw97P9-mJ-PoGu3Q-8" value="" style="endArrow=none;html=1;rounded=0;strokeWidth=4;entryX=0.5;entryY=1;entryDx=0;entryDy=0;exitX=1;exitY=0.5;exitDx=0;exitDy=0;" parent="1" source="Kns-bw97P9-mJ-PoGu3Q-13" target="Kns-bw97P9-mJ-PoGu3Q-12" edge="1">
          <mxGeometry width="50" height="50" relative="1" as="geometry">
            <mxPoint x="-5" y="591" as="sourcePoint" />
            <mxPoint x="98" y="525" as="targetPoint" />
          </mxGeometry>
        </mxCell>
        <mxCell id="Kns-bw97P9-mJ-PoGu3Q-9" value="" style="endArrow=none;html=1;rounded=0;strokeWidth=4;entryX=0.5;entryY=1;entryDx=0;entryDy=0;exitX=0;exitY=0.5;exitDx=0;exitDy=0;" parent="1" source="Kns-bw97P9-mJ-PoGu3Q-13" target="Kns-bw97P9-mJ-PoGu3Q-14" edge="1">
          <mxGeometry width="50" height="50" relative="1" as="geometry">
            <mxPoint x="-76" y="595" as="sourcePoint" />
            <mxPoint x="-187" y="531" as="targetPoint" />
          </mxGeometry>
        </mxCell>
        <mxCell id="Kns-bw97P9-mJ-PoGu3Q-11" value="&lt;font style=&quot;font-size: 30px;&quot;&gt;A&lt;/font&gt;" style="ellipse;whiteSpace=wrap;html=1;aspect=fixed;strokeWidth=4;" parent="1" vertex="1">
          <mxGeometry x="200" y="240" width="80" height="80" as="geometry" />
        </mxCell>
        <mxCell id="Kns-bw97P9-mJ-PoGu3Q-12" value="&lt;font style=&quot;font-size: 30px;&quot;&gt;B&lt;/font&gt;" style="ellipse;whiteSpace=wrap;html=1;aspect=fixed;strokeWidth=4;" parent="1" vertex="1">
          <mxGeometry x="360" y="360" width="80" height="80" as="geometry" />
        </mxCell>
        <mxCell id="Kns-bw97P9-mJ-PoGu3Q-13" value="&lt;font style=&quot;font-size: 30px;&quot;&gt;C&lt;/font&gt;" style="ellipse;whiteSpace=wrap;html=1;aspect=fixed;strokeWidth=4;" parent="1" vertex="1">
          <mxGeometry x="200" y="480" width="80" height="80" as="geometry" />
        </mxCell>
        <mxCell id="Kns-bw97P9-mJ-PoGu3Q-14" value="&lt;font style=&quot;font-size: 30px;&quot;&gt;D&lt;/font&gt;" style="ellipse;whiteSpace=wrap;html=1;aspect=fixed;strokeWidth=4;" parent="1" vertex="1">
          <mxGeometry x="40" y="360" width="80" height="80" as="geometry" />
        </mxCell>
        <mxCell id="Kns-bw97P9-mJ-PoGu3Q-19" value="" style="endArrow=none;html=1;rounded=0;strokeWidth=4;entryX=0;entryY=0.5;entryDx=0;entryDy=0;exitX=0.5;exitY=0;exitDx=0;exitDy=0;" parent="1" source="Kns-bw97P9-mJ-PoGu3Q-26" target="Kns-bw97P9-mJ-PoGu3Q-23" edge="1">
          <mxGeometry width="50" height="50" relative="1" as="geometry">
            <mxPoint x="411" y="486" as="sourcePoint" />
            <mxPoint x="531" y="416" as="targetPoint" />
          </mxGeometry>
        </mxCell>
        <mxCell id="Kns-bw97P9-mJ-PoGu3Q-20" value="" style="endArrow=none;html=1;rounded=0;strokeWidth=4;exitX=1;exitY=0.5;exitDx=0;exitDy=0;entryX=0.5;entryY=0;entryDx=0;entryDy=0;" parent="1" source="Kns-bw97P9-mJ-PoGu3Q-23" target="Kns-bw97P9-mJ-PoGu3Q-24" edge="1">
          <mxGeometry width="50" height="50" relative="1" as="geometry">
            <mxPoint x="589" y="411" as="sourcePoint" />
            <mxPoint x="716" y="489" as="targetPoint" />
          </mxGeometry>
        </mxCell>
        <mxCell id="Kns-bw97P9-mJ-PoGu3Q-21" value="" style="endArrow=none;html=1;rounded=0;strokeWidth=4;entryX=0.5;entryY=1;entryDx=0;entryDy=0;exitX=1;exitY=0.5;exitDx=0;exitDy=0;" parent="1" source="Kns-bw97P9-mJ-PoGu3Q-25" target="Kns-bw97P9-mJ-PoGu3Q-24" edge="1">
          <mxGeometry width="50" height="50" relative="1" as="geometry">
            <mxPoint x="595" y="591" as="sourcePoint" />
            <mxPoint x="698" y="525" as="targetPoint" />
          </mxGeometry>
        </mxCell>
        <mxCell id="Kns-bw97P9-mJ-PoGu3Q-22" value="" style="endArrow=none;html=1;rounded=0;strokeWidth=4;entryX=0.5;entryY=1;entryDx=0;entryDy=0;exitX=0;exitY=0.5;exitDx=0;exitDy=0;" parent="1" source="Kns-bw97P9-mJ-PoGu3Q-25" target="Kns-bw97P9-mJ-PoGu3Q-26" edge="1">
          <mxGeometry width="50" height="50" relative="1" as="geometry">
            <mxPoint x="524" y="595" as="sourcePoint" />
            <mxPoint x="413" y="531" as="targetPoint" />
          </mxGeometry>
        </mxCell>
        <mxCell id="Kns-bw97P9-mJ-PoGu3Q-23" value="&lt;font style=&quot;font-size: 30px;&quot;&gt;A&lt;/font&gt;" style="ellipse;whiteSpace=wrap;html=1;aspect=fixed;strokeWidth=4;" parent="1" vertex="1">
          <mxGeometry x="800" y="240" width="80" height="80" as="geometry" />
        </mxCell>
        <mxCell id="Kns-bw97P9-mJ-PoGu3Q-24" value="&lt;font style=&quot;font-size: 30px;&quot;&gt;B&lt;/font&gt;" style="ellipse;whiteSpace=wrap;html=1;aspect=fixed;strokeWidth=4;" parent="1" vertex="1">
          <mxGeometry x="960" y="360" width="80" height="80" as="geometry" />
        </mxCell>
        <mxCell id="Kns-bw97P9-mJ-PoGu3Q-25" value="&lt;font style=&quot;font-size: 30px;&quot;&gt;C&lt;/font&gt;" style="ellipse;whiteSpace=wrap;html=1;aspect=fixed;strokeWidth=4;" parent="1" vertex="1">
          <mxGeometry x="800" y="480" width="80" height="80" as="geometry" />
        </mxCell>
        <mxCell id="Kns-bw97P9-mJ-PoGu3Q-26" value="&lt;font style=&quot;font-size: 30px;&quot;&gt;D&lt;/font&gt;" style="ellipse;whiteSpace=wrap;html=1;aspect=fixed;strokeWidth=4;" parent="1" vertex="1">
          <mxGeometry x="640" y="360" width="80" height="80" as="geometry" />
        </mxCell>
        <mxCell id="Kns-bw97P9-mJ-PoGu3Q-27" value="" style="endArrow=none;html=1;rounded=0;strokeWidth=4;entryX=0;entryY=0.5;entryDx=0;entryDy=0;exitX=1;exitY=0.5;exitDx=0;exitDy=0;" parent="1" source="Kns-bw97P9-mJ-PoGu3Q-26" target="Kns-bw97P9-mJ-PoGu3Q-24" edge="1">
          <mxGeometry width="50" height="50" relative="1" as="geometry">
            <mxPoint x="690" y="370" as="sourcePoint" />
            <mxPoint x="810" y="290" as="targetPoint" />
          </mxGeometry>
        </mxCell>
        <mxCell id="Kns-bw97P9-mJ-PoGu3Q-28" value="" style="endArrow=none;html=1;rounded=0;strokeWidth=4;entryX=0.5;entryY=0;entryDx=0;entryDy=0;exitX=0.5;exitY=1;exitDx=0;exitDy=0;" parent="1" source="Kns-bw97P9-mJ-PoGu3Q-23" target="Kns-bw97P9-mJ-PoGu3Q-25" edge="1">
          <mxGeometry width="50" height="50" relative="1" as="geometry">
            <mxPoint x="730" y="410" as="sourcePoint" />
            <mxPoint x="970" y="410" as="targetPoint" />
          </mxGeometry>
        </mxCell>
        <mxCell id="Kns-bw97P9-mJ-PoGu3Q-29" value="" style="edgeStyle=none;orthogonalLoop=1;jettySize=auto;html=1;rounded=0;strokeWidth=4;strokeColor=#00CCCC;" parent="1" edge="1">
          <mxGeometry width="80" relative="1" as="geometry">
            <mxPoint x="9" y="378" as="sourcePoint" />
            <mxPoint x="259" y="578" as="targetPoint" />
            <Array as="points">
              <mxPoint x="239" y="218" />
              <mxPoint x="499" y="398" />
            </Array>
          </mxGeometry>
        </mxCell>
        <mxCell id="Kns-bw97P9-mJ-PoGu3Q-30" value="" style="curved=1;endArrow=classic;html=1;rounded=0;strokeWidth=4;strokeColor=#FF0000;" parent="1" edge="1">
          <mxGeometry width="50" height="50" relative="1" as="geometry">
            <mxPoint x="340" y="400" as="sourcePoint" />
            <mxPoint x="150" y="400" as="targetPoint" />
            <Array as="points">
              <mxPoint x="220" y="280" />
            </Array>
          </mxGeometry>
        </mxCell>
        <mxCell id="Kns-bw97P9-mJ-PoGu3Q-31" value="" style="curved=1;endArrow=classic;html=1;rounded=0;strokeWidth=4;strokeColor=#FF0000;" parent="1" edge="1">
          <mxGeometry width="50" height="50" relative="1" as="geometry">
            <mxPoint x="150" y="400" as="sourcePoint" />
            <mxPoint x="340" y="400" as="targetPoint" />
            <Array as="points">
              <mxPoint x="240" y="510" />
            </Array>
          </mxGeometry>
        </mxCell>
        <mxCell id="Kns-bw97P9-mJ-PoGu3Q-32" value="" style="edgeStyle=none;orthogonalLoop=1;jettySize=auto;html=1;rounded=0;strokeWidth=4;strokeColor=#00CCCC;" parent="1" edge="1">
          <mxGeometry width="80" relative="1" as="geometry">
            <mxPoint x="610" y="380" as="sourcePoint" />
            <mxPoint x="860" y="580" as="targetPoint" />
            <Array as="points">
              <mxPoint x="840" y="220" />
              <mxPoint x="1100" y="400" />
            </Array>
          </mxGeometry>
        </mxCell>
        <mxCell id="Kns-bw97P9-mJ-PoGu3Q-33" value="" style="curved=1;endArrow=classic;html=1;rounded=0;strokeWidth=4;strokeColor=#FF0000;" parent="1" edge="1">
          <mxGeometry width="50" height="50" relative="1" as="geometry">
            <mxPoint x="935" y="400" as="sourcePoint" />
            <mxPoint x="745" y="400" as="targetPoint" />
            <Array as="points">
              <mxPoint x="840" y="270" />
            </Array>
          </mxGeometry>
        </mxCell>
        <mxCell id="Kns-bw97P9-mJ-PoGu3Q-34" value="" style="curved=1;endArrow=classic;html=1;rounded=0;strokeWidth=4;strokeColor=#FF0000;" parent="1" edge="1">
          <mxGeometry width="50" height="50" relative="1" as="geometry">
            <mxPoint x="745" y="400" as="sourcePoint" />
            <mxPoint x="940" y="400" as="targetPoint" />
            <Array as="points">
              <mxPoint x="840" y="530" />
            </Array>
          </mxGeometry>
        </mxCell>
        <mxCell id="Kns-bw97P9-mJ-PoGu3Q-35" value="" style="curved=1;endArrow=classic;html=1;rounded=0;strokeWidth=4;strokeColor=#FF0000;" parent="1" edge="1">
          <mxGeometry width="50" height="50" relative="1" as="geometry">
            <mxPoint x="940" y="370" as="sourcePoint" />
            <mxPoint x="750" y="370" as="targetPoint" />
            <Array as="points">
              <mxPoint x="845" y="240" />
            </Array>
          </mxGeometry>
        </mxCell>
        <mxCell id="Kns-bw97P9-mJ-PoGu3Q-36" value="" style="endArrow=classic;html=1;rounded=0;strokeWidth=4;strokeColor=#FF0000;" parent="1" edge="1">
          <mxGeometry width="50" height="50" relative="1" as="geometry">
            <mxPoint x="750" y="370" as="sourcePoint" />
            <mxPoint x="940" y="370" as="targetPoint" />
          </mxGeometry>
        </mxCell>
        <mxCell id="Kns-bw97P9-mJ-PoGu3Q-40" value="" style="group;rotation=90;" parent="1" vertex="1" connectable="0">
          <mxGeometry x="870" y="340" width="190" height="130" as="geometry" />
        </mxCell>
        <mxCell id="Kns-bw97P9-mJ-PoGu3Q-38" value="" style="curved=1;endArrow=classic;html=1;rounded=0;strokeWidth=4;strokeColor=#FF0000;" parent="Kns-bw97P9-mJ-PoGu3Q-40" edge="1">
          <mxGeometry width="50" height="50" relative="1" as="geometry">
            <mxPoint x="30" y="160" as="sourcePoint" />
            <mxPoint x="30" y="-30" as="targetPoint" />
            <Array as="points">
              <mxPoint x="160" y="65" />
            </Array>
          </mxGeometry>
        </mxCell>
        <mxCell id="Kns-bw97P9-mJ-PoGu3Q-39" value="" style="endArrow=classic;html=1;rounded=0;strokeWidth=4;strokeColor=#FF0000;" parent="Kns-bw97P9-mJ-PoGu3Q-40" edge="1">
          <mxGeometry width="50" height="50" relative="1" as="geometry">
            <mxPoint x="30" y="-30" as="sourcePoint" />
            <mxPoint x="30" y="160" as="targetPoint" />
          </mxGeometry>
        </mxCell>
        <mxCell id="tr_B0UnX017DNEUYkG4s-1" value="" style="endArrow=none;html=1;rounded=0;strokeWidth=4;entryX=0;entryY=0.5;entryDx=0;entryDy=0;exitX=0.5;exitY=0;exitDx=0;exitDy=0;" parent="1" source="tr_B0UnX017DNEUYkG4s-8" target="tr_B0UnX017DNEUYkG4s-5" edge="1">
          <mxGeometry width="50" height="50" relative="1" as="geometry">
            <mxPoint x="-98" y="938" as="sourcePoint" />
            <mxPoint x="22" y="868" as="targetPoint" />
          </mxGeometry>
        </mxCell>
        <mxCell id="tr_B0UnX017DNEUYkG4s-2" value="" style="endArrow=none;html=1;rounded=0;strokeWidth=4;exitX=1;exitY=0.5;exitDx=0;exitDy=0;entryX=0.5;entryY=0;entryDx=0;entryDy=0;" parent="1" source="tr_B0UnX017DNEUYkG4s-5" target="tr_B0UnX017DNEUYkG4s-6" edge="1">
          <mxGeometry width="50" height="50" relative="1" as="geometry">
            <mxPoint x="80" y="863" as="sourcePoint" />
            <mxPoint x="207" y="941" as="targetPoint" />
          </mxGeometry>
        </mxCell>
        <mxCell id="tr_B0UnX017DNEUYkG4s-3" value="" style="endArrow=none;html=1;rounded=0;strokeWidth=4;entryX=0.5;entryY=1;entryDx=0;entryDy=0;exitX=1;exitY=0.5;exitDx=0;exitDy=0;" parent="1" source="tr_B0UnX017DNEUYkG4s-7" target="tr_B0UnX017DNEUYkG4s-6" edge="1">
          <mxGeometry width="50" height="50" relative="1" as="geometry">
            <mxPoint x="86" y="1043" as="sourcePoint" />
            <mxPoint x="189" y="977" as="targetPoint" />
          </mxGeometry>
        </mxCell>
        <mxCell id="tr_B0UnX017DNEUYkG4s-4" value="" style="endArrow=none;html=1;rounded=0;strokeWidth=4;entryX=0.5;entryY=1;entryDx=0;entryDy=0;exitX=0;exitY=0.5;exitDx=0;exitDy=0;" parent="1" source="tr_B0UnX017DNEUYkG4s-7" target="tr_B0UnX017DNEUYkG4s-8" edge="1">
          <mxGeometry width="50" height="50" relative="1" as="geometry">
            <mxPoint x="15" y="1047" as="sourcePoint" />
            <mxPoint x="-96" y="983" as="targetPoint" />
          </mxGeometry>
        </mxCell>
        <mxCell id="tr_B0UnX017DNEUYkG4s-5" value="&lt;font style=&quot;font-size: 30px;&quot;&gt;A&lt;/font&gt;" style="ellipse;whiteSpace=wrap;html=1;aspect=fixed;strokeWidth=4;" parent="1" vertex="1">
          <mxGeometry x="291" y="692" width="80" height="80" as="geometry" />
        </mxCell>
        <mxCell id="tr_B0UnX017DNEUYkG4s-6" value="&lt;font style=&quot;font-size: 30px;&quot;&gt;B&lt;/font&gt;" style="ellipse;whiteSpace=wrap;html=1;aspect=fixed;strokeWidth=4;" parent="1" vertex="1">
          <mxGeometry x="451" y="812" width="80" height="80" as="geometry" />
        </mxCell>
        <mxCell id="tr_B0UnX017DNEUYkG4s-7" value="&lt;font style=&quot;font-size: 30px;&quot;&gt;C&lt;/font&gt;" style="ellipse;whiteSpace=wrap;html=1;aspect=fixed;strokeWidth=4;" parent="1" vertex="1">
          <mxGeometry x="291" y="932" width="80" height="80" as="geometry" />
        </mxCell>
        <mxCell id="tr_B0UnX017DNEUYkG4s-8" value="&lt;font style=&quot;font-size: 30px;&quot;&gt;D&lt;/font&gt;" style="ellipse;whiteSpace=wrap;html=1;aspect=fixed;strokeWidth=4;" parent="1" vertex="1">
          <mxGeometry x="131" y="812" width="80" height="80" as="geometry" />
        </mxCell>
        <mxCell id="tr_B0UnX017DNEUYkG4s-9" value="" style="edgeStyle=none;orthogonalLoop=1;jettySize=auto;html=1;rounded=0;strokeWidth=4;strokeColor=#4C0099;fillColor=#e1d5e7;" parent="1" edge="1">
          <mxGeometry width="80" relative="1" as="geometry">
            <mxPoint x="100" y="830" as="sourcePoint" />
            <mxPoint x="590" y="850" as="targetPoint" />
            <Array as="points">
              <mxPoint x="330" y="670" />
              <mxPoint x="590" y="850" />
            </Array>
          </mxGeometry>
        </mxCell>
        <mxCell id="tr_B0UnX017DNEUYkG4s-12" value="" style="edgeStyle=none;orthogonalLoop=1;jettySize=auto;html=1;rounded=0;strokeWidth=4;strokeColor=#00CCCC;fillColor=#fff2cc;" parent="1" edge="1">
          <mxGeometry width="80" relative="1" as="geometry">
            <mxPoint x="340" y="660" as="sourcePoint" />
            <mxPoint x="370" y="1010" as="targetPoint" />
            <Array as="points">
              <mxPoint x="610" y="850" />
              <mxPoint x="370" y="1010" />
            </Array>
          </mxGeometry>
        </mxCell>
        <mxCell id="tr_B0UnX017DNEUYkG4s-13" value="" style="edgeStyle=none;orthogonalLoop=1;jettySize=auto;html=1;rounded=0;strokeWidth=4;strokeColor=#009900;fillColor=#d5e8d4;" parent="1" edge="1">
          <mxGeometry width="80" relative="1" as="geometry">
            <mxPoint x="620" y="850" as="sourcePoint" />
            <mxPoint x="110" y="870" as="targetPoint" />
            <Array as="points">
              <mxPoint x="330" y="1050" />
              <mxPoint x="110" y="870" />
            </Array>
          </mxGeometry>
        </mxCell>
        <mxCell id="tr_B0UnX017DNEUYkG4s-14" value="" style="edgeStyle=none;orthogonalLoop=1;jettySize=auto;html=1;rounded=0;strokeWidth=4;strokeColor=#0066CC;fillColor=#dae8fc;" parent="1" edge="1">
          <mxGeometry width="80" relative="1" as="geometry">
            <mxPoint x="320" y="1060" as="sourcePoint" />
            <mxPoint x="274" y="721" as="targetPoint" />
            <Array as="points">
              <mxPoint x="74" y="871" />
              <mxPoint x="274" y="721" />
            </Array>
          </mxGeometry>
        </mxCell>
        <mxCell id="tr_B0UnX017DNEUYkG4s-33" value="" style="endArrow=none;html=1;rounded=0;strokeWidth=4;entryX=0;entryY=0.5;entryDx=0;entryDy=0;exitX=0.5;exitY=0;exitDx=0;exitDy=0;" parent="1" source="tr_B0UnX017DNEUYkG4s-40" target="tr_B0UnX017DNEUYkG4s-37" edge="1">
          <mxGeometry width="50" height="50" relative="1" as="geometry">
            <mxPoint x="586" y="926" as="sourcePoint" />
            <mxPoint x="706" y="856" as="targetPoint" />
          </mxGeometry>
        </mxCell>
        <mxCell id="tr_B0UnX017DNEUYkG4s-34" value="" style="endArrow=none;html=1;rounded=0;strokeWidth=4;exitX=1;exitY=0.5;exitDx=0;exitDy=0;entryX=0.5;entryY=0;entryDx=0;entryDy=0;" parent="1" source="tr_B0UnX017DNEUYkG4s-37" target="tr_B0UnX017DNEUYkG4s-38" edge="1">
          <mxGeometry width="50" height="50" relative="1" as="geometry">
            <mxPoint x="764" y="851" as="sourcePoint" />
            <mxPoint x="891" y="929" as="targetPoint" />
          </mxGeometry>
        </mxCell>
        <mxCell id="tr_B0UnX017DNEUYkG4s-35" value="" style="endArrow=none;html=1;rounded=0;strokeWidth=4;entryX=0.5;entryY=1;entryDx=0;entryDy=0;exitX=1;exitY=0.5;exitDx=0;exitDy=0;" parent="1" source="tr_B0UnX017DNEUYkG4s-39" target="tr_B0UnX017DNEUYkG4s-38" edge="1">
          <mxGeometry width="50" height="50" relative="1" as="geometry">
            <mxPoint x="770" y="1031" as="sourcePoint" />
            <mxPoint x="873" y="965" as="targetPoint" />
          </mxGeometry>
        </mxCell>
        <mxCell id="tr_B0UnX017DNEUYkG4s-36" value="" style="endArrow=none;html=1;rounded=0;strokeWidth=4;entryX=0.5;entryY=1;entryDx=0;entryDy=0;exitX=0;exitY=0.5;exitDx=0;exitDy=0;" parent="1" source="tr_B0UnX017DNEUYkG4s-39" target="tr_B0UnX017DNEUYkG4s-40" edge="1">
          <mxGeometry width="50" height="50" relative="1" as="geometry">
            <mxPoint x="699" y="1035" as="sourcePoint" />
            <mxPoint x="588" y="971" as="targetPoint" />
          </mxGeometry>
        </mxCell>
        <mxCell id="tr_B0UnX017DNEUYkG4s-37" value="&lt;font style=&quot;font-size: 30px;&quot;&gt;A&lt;/font&gt;" style="ellipse;whiteSpace=wrap;html=1;aspect=fixed;strokeWidth=4;" parent="1" vertex="1">
          <mxGeometry x="975" y="680" width="80" height="80" as="geometry" />
        </mxCell>
        <mxCell id="tr_B0UnX017DNEUYkG4s-38" value="&lt;font style=&quot;font-size: 30px;&quot;&gt;B&lt;/font&gt;" style="ellipse;whiteSpace=wrap;html=1;aspect=fixed;strokeWidth=4;" parent="1" vertex="1">
          <mxGeometry x="1135" y="800" width="80" height="80" as="geometry" />
        </mxCell>
        <mxCell id="tr_B0UnX017DNEUYkG4s-39" value="&lt;font style=&quot;font-size: 30px;&quot;&gt;C&lt;/font&gt;" style="ellipse;whiteSpace=wrap;html=1;aspect=fixed;strokeWidth=4;" parent="1" vertex="1">
          <mxGeometry x="975" y="920" width="80" height="80" as="geometry" />
        </mxCell>
        <mxCell id="tr_B0UnX017DNEUYkG4s-40" value="&lt;font style=&quot;font-size: 30px;&quot;&gt;D&lt;/font&gt;" style="ellipse;whiteSpace=wrap;html=1;aspect=fixed;strokeWidth=4;" parent="1" vertex="1">
          <mxGeometry x="815" y="800" width="80" height="80" as="geometry" />
        </mxCell>
        <mxCell id="tr_B0UnX017DNEUYkG4s-41" value="" style="endArrow=none;html=1;rounded=0;strokeWidth=4;entryX=0;entryY=0.5;entryDx=0;entryDy=0;exitX=1;exitY=0.5;exitDx=0;exitDy=0;" parent="1" source="tr_B0UnX017DNEUYkG4s-40" target="tr_B0UnX017DNEUYkG4s-38" edge="1">
          <mxGeometry width="50" height="50" relative="1" as="geometry">
            <mxPoint x="865" y="810" as="sourcePoint" />
            <mxPoint x="985" y="730" as="targetPoint" />
          </mxGeometry>
        </mxCell>
        <mxCell id="tr_B0UnX017DNEUYkG4s-42" value="" style="endArrow=none;html=1;rounded=0;strokeWidth=4;entryX=0.5;entryY=0;entryDx=0;entryDy=0;exitX=0.5;exitY=1;exitDx=0;exitDy=0;" parent="1" source="tr_B0UnX017DNEUYkG4s-37" target="tr_B0UnX017DNEUYkG4s-39" edge="1">
          <mxGeometry width="50" height="50" relative="1" as="geometry">
            <mxPoint x="905" y="850" as="sourcePoint" />
            <mxPoint x="1145" y="850" as="targetPoint" />
          </mxGeometry>
        </mxCell>
        <mxCell id="tr_B0UnX017DNEUYkG4s-43" value="" style="edgeStyle=none;orthogonalLoop=1;jettySize=auto;html=1;rounded=0;strokeWidth=4;strokeColor=#00CCCC;entryX=0.5;entryY=0;entryDx=0;entryDy=0;" parent="1" edge="1">
          <mxGeometry width="80" relative="1" as="geometry">
            <mxPoint x="889" y="809" as="sourcePoint" />
            <mxPoint x="999" y="919" as="targetPoint" />
            <Array as="points">
              <mxPoint x="999" y="769" />
              <mxPoint x="999" y="849" />
            </Array>
          </mxGeometry>
        </mxCell>
        <mxCell id="tr_B0UnX017DNEUYkG4s-51" value="" style="edgeStyle=none;orthogonalLoop=1;jettySize=auto;html=1;rounded=0;strokeWidth=4;strokeColor=#4C0099;" parent="1" edge="1">
          <mxGeometry width="80" relative="1" as="geometry">
            <mxPoint x="985" y="790" as="sourcePoint" />
            <mxPoint x="905" y="880" as="targetPoint" />
            <Array as="points">
              <mxPoint x="985" y="920" />
              <mxPoint x="925" y="890" />
              <mxPoint x="905" y="880" />
            </Array>
          </mxGeometry>
        </mxCell>
        <mxCell id="tr_B0UnX017DNEUYkG4s-52" value="" style="edgeStyle=none;orthogonalLoop=1;jettySize=auto;html=1;rounded=0;strokeWidth=4;strokeColor=#0066CC;fillColor=#dae8fc;" parent="1" edge="1">
          <mxGeometry width="80" relative="1" as="geometry">
            <mxPoint x="975" y="892" as="sourcePoint" />
            <mxPoint x="975" y="792" as="targetPoint" />
            <Array as="points">
              <mxPoint x="905" y="842" />
              <mxPoint x="975" y="792" />
            </Array>
          </mxGeometry>
        </mxCell>
      </root>
    </mxGraphModel>
  </diagram>
</mxfile>
